<?xml version="1.0" encoding="UTF-8" standalone="no"?>
<!-- Created with Inkscape (http://www.inkscape.org/) -->

<svg
   xmlns:dc="http://purl.org/dc/elements/1.1/"
   xmlns:cc="http://creativecommons.org/ns#"
   xmlns:rdf="http://www.w3.org/1999/02/22-rdf-syntax-ns#"
   xmlns:svg="http://www.w3.org/2000/svg"
   xmlns="http://www.w3.org/2000/svg"
   xmlns:sodipodi="http://sodipodi.sourceforge.net/DTD/sodipodi-0.dtd"
   xmlns:inkscape="http://www.inkscape.org/namespaces/inkscape"
   width="164"
   height="164"
   id="svg4351"
   version="1.1"
   inkscape:version="0.91 r13725"
   viewBox="0 0 164 164"
   sodipodi:docname="extras.svg">
  <defs
     id="defs4353" />
  <sodipodi:namedview
     id="base"
     pagecolor="#ffffff"
     bordercolor="#666666"
     borderopacity="1.0"
     inkscape:pageopacity="0.0"
     inkscape:pageshadow="2"
     inkscape:zoom="2.75"
     inkscape:cx="112.86537"
     inkscape:cy="-0.67224485"
     inkscape:current-layer="layer1"
     showgrid="true"
     inkscape:document-units="px"
     inkscape:grid-bbox="true"
     showguides="false"
     inkscape:window-width="1855"
     inkscape:window-height="1056"
     inkscape:window-x="65"
     inkscape:window-y="24"
     inkscape:window-maximized="1" />
  <metadata
     id="metadata4356">
    <rdf:RDF>
      <cc:Work
         rdf:about="">
        <dc:format>image/svg+xml</dc:format>
        <dc:type
           rdf:resource="http://purl.org/dc/dcmitype/StillImage" />
        <dc:title></dc:title>
      </cc:Work>
    </rdf:RDF>
  </metadata>
  <g
     id="layer1"
     inkscape:label="Layer 1"
     inkscape:groupmode="layer"
     transform="translate(0,100)">
    <path
       style="opacity:1;fill:#000000;fill-opacity:1;fill-rule:evenodd;stroke:#ffffff;stroke-width:1.85920072;stroke-linecap:butt;stroke-linejoin:miter;stroke-miterlimit:4;stroke-dasharray:none;stroke-dashoffset:0;stroke-opacity:1"
       id="path5084"
       sodipodi:type="arc"
       sodipodi:cx="56.770432"
       sodipodi:cy="5.5653291"
       sodipodi:rx="44.369286"
       sodipodi:ry="44.369286"
       sodipodi:start="6.1987812"
       sodipodi:end="6.1958316"
       sodipodi:open="true"
       d="M 100.98177,1.8248241 A 44.369286,44.369286 0 0 1 60.543537,49.773894 44.369286,44.369286 0 0 1 12.564661,9.3710328 44.369286,44.369286 0 0 1 52.932131,-38.637623 44.369286,44.369286 0 0 1 100.97054,1.6944348" />
    <path
       style="opacity:1;fill:#000000;fill-opacity:1;fill-rule:evenodd;stroke:#ffffff;stroke-width:1.85920072;stroke-linecap:butt;stroke-linejoin:miter;stroke-miterlimit:4;stroke-dasharray:none;stroke-dashoffset:0;stroke-opacity:1"
       id="path5086"
       sodipodi:type="arc"
       sodipodi:cx="75.603424"
       sodipodi:cy="-17.098131"
       sodipodi:rx="7.0224771"
       sodipodi:ry="7.0224771"
       sodipodi:start="6.1987812"
       sodipodi:end="6.1958316"
       sodipodi:open="true"
       d="m 82.600902,-17.690154 a 7.0224771,7.0224771 0 0 1 -6.400296,7.589062 7.0224771,7.0224771 0 0 1 -7.593779,-6.394698 7.0224771,7.0224771 0 0 1 6.389096,-7.598492 7.0224771,7.0224771 0 0 1 7.603202,6.383491" />
    <rect
       style="opacity:1;fill:#000000;fill-opacity:1;fill-rule:evenodd;stroke:#ffffff;stroke-width:2.11838126;stroke-linecap:butt;stroke-linejoin:miter;stroke-miterlimit:4;stroke-dasharray:none;stroke-dashoffset:0;stroke-opacity:1"
       id="rect5138"
       width="20.798655"
       height="30.812819"
       x="115.34375"
       y="-95.440804"
       ry="0.27238783" />
    <rect
       style="opacity:1;fill:#000000;fill-opacity:1;fill-rule:evenodd;stroke:#ffffff;stroke-width:2.11838126;stroke-linecap:butt;stroke-linejoin:miter;stroke-miterlimit:4;stroke-dasharray:none;stroke-dashoffset:0;stroke-opacity:1"
       id="rect5136"
       width="40.852417"
       height="123.64665"
       x="104.28991"
       y="-72.084511"
       ry="0.27238783" />
    <path
       style="opacity:1;fill:#000000;fill-opacity:1;fill-rule:evenodd;stroke:#ffffff;stroke-width:1.85920072;stroke-linecap:butt;stroke-linejoin:miter;stroke-miterlimit:4;stroke-dasharray:none;stroke-dashoffset:0;stroke-opacity:1"
       d="m 92.90649,51.27741 c -4.545985,-1.45353 -8.636174,-3.825933 -11.796288,-6.842105 -1.341293,-1.280215 -4.018787,-3.267418 -5.949969,-4.416014 -6.941346,-4.128497 -9.999408,-8.92771 -8.771425,-13.765599 0.757425,-2.984009 4.478693,-6.996161 8.26628,-8.912437 1.506761,-0.762324 3.961959,-2.505129 5.455974,-3.872932 6.7894,-6.2157346 13.689788,-8.9184216 22.827338,-8.9407886 4.22529,-0.0105 6.83391,0.35 9.82289,1.356918 4.33889,1.461659 9.79912,4.6804626 11.84158,6.9805876 0.6836,0.769839 2.86222,2.262783 4.84139,3.317665 6.85437,3.653355 10.83348,8.203095 10.83348,12.387069 0,4.054287 -4.13607,8.913561 -10.16105,11.937736 -1.60947,0.807849 -4.25274,2.665593 -5.87395,4.128339 -3.40402,3.071263 -8.43826,5.781378 -13.0125,7.005096 -4.61281,1.234026 -13.90378,1.049703 -18.32375,-0.363535 z"
       id="path5092"
       inkscape:connector-curvature="0" />
    <path
       style="opacity:1;fill:#000000;fill-opacity:1;fill-rule:evenodd;stroke:#ffffff;stroke-width:1.16928041;stroke-linecap:butt;stroke-linejoin:miter;stroke-miterlimit:4;stroke-dasharray:none;stroke-dashoffset:0;stroke-opacity:1"
       d="m 50.220611,55.570551 c -2.142824,-0.400809 -4.386147,-1.74756 -5.828747,-3.499194 -1.637613,-1.988453 -2.455757,-5.27257 -1.98967,-7.986724 0.448675,-2.612706 2.205484,-5.177355 4.481371,-6.542056 1.183242,-0.709517 1.668423,-1.172255 1.600172,-1.52616 -0.0539,-0.279346 -0.429253,-3.655939 -0.834176,-7.503539 -0.404934,-3.8476 -0.775923,-7.021629 -0.824436,-7.053394 -0.07015,-0.046 -15.365279,13.110738 -15.640308,13.453702 -0.04089,0.05098 0.439555,0.638097 1.067659,1.304677 3.945328,4.187011 3.297893,11.047884 -1.375335,14.574369 -0.913342,0.689223 -1.903341,1.101604 -3.641433,1.516818 -2.105942,0.503096 -2.618864,0.515655 -4.355449,0.106616 -6.637478,-1.563365 -9.668897,-8.934833 -6.09977,-14.83276 1.972277,-3.25914 6.191489,-5.084046 10.020797,-4.334222 l 2.012122,0.393992 8.733523,-7.558708 8.73352,-7.558705 -0.119083,-2.534228 -0.119084,-2.534227 0.922048,0.0063 c 0.50714,0.0035 1.076686,-0.02347 1.265687,-0.05992 0.297501,-0.05737 1.675579,11.046083 2.617915,21.09295 l 0.142047,1.51454 1.556827,0.06652 c 7.490361,0.32008 11.851813,9.059354 7.632874,15.29439 -1.500607,2.217677 -3.193199,3.342596 -5.978156,3.973118 -1.799032,0.407323 -2.728609,0.460011 -3.980931,0.22579 z"
       id="path5134"
       inkscape:connector-curvature="0" />
  </g>
</svg>
