<?xml version="1.0" encoding="UTF-8" standalone="no"?>
<!-- Created with Inkscape (http://www.inkscape.org/) -->

<svg
   xmlns:dc="http://purl.org/dc/elements/1.1/"
   xmlns:cc="http://creativecommons.org/ns#"
   xmlns:rdf="http://www.w3.org/1999/02/22-rdf-syntax-ns#"
   xmlns:svg="http://www.w3.org/2000/svg"
   xmlns="http://www.w3.org/2000/svg"
   xmlns:sodipodi="http://sodipodi.sourceforge.net/DTD/sodipodi-0.dtd"
   xmlns:inkscape="http://www.inkscape.org/namespaces/inkscape"
   width="164"
   height="164"
   id="svg4351"
   version="1.1"
   inkscape:version="0.91 r13725"
   viewBox="0 0 164 164"
   sodipodi:docname="liquids.svg">
  <defs
     id="defs4353" />
  <sodipodi:namedview
     id="base"
     pagecolor="#ffffff"
     bordercolor="#666666"
     borderopacity="1.0"
     inkscape:pageopacity="0.0"
     inkscape:pageshadow="2"
     inkscape:zoom="2.75"
     inkscape:cx="0.18181836"
     inkscape:cy="52.278485"
     inkscape:current-layer="layer1"
     showgrid="true"
     inkscape:document-units="px"
     inkscape:grid-bbox="true"
     showguides="false"
     inkscape:window-width="1855"
     inkscape:window-height="1056"
     inkscape:window-x="65"
     inkscape:window-y="24"
     inkscape:window-maximized="1" />
  <metadata
     id="metadata4356">
    <rdf:RDF>
      <cc:Work
         rdf:about="">
        <dc:format>image/svg+xml</dc:format>
        <dc:type
           rdf:resource="http://purl.org/dc/dcmitype/StillImage" />
        <dc:title />
      </cc:Work>
    </rdf:RDF>
  </metadata>
  <g
     id="layer1"
     inkscape:label="Layer 1"
     inkscape:groupmode="layer"
     transform="translate(0,100)">
    <path
       style="opacity:1;fill:#000000;fill-opacity:1;fill-rule:evenodd;stroke:#ffffff;stroke-width:1.28133833;stroke-linecap:butt;stroke-linejoin:miter;stroke-miterlimit:4;stroke-dasharray:none;stroke-dashoffset:0;stroke-opacity:1"
       d="m 18.459526,37.029473 0,-3.550633 2.484615,-0.07576 2.484615,-0.07576 -1.877478,-1.438089 C 4.5093772,18.835395 1.172853,-4.3713977 13.921371,-21.179944 c 5.318014,-7.011644 13.794432,-12.631273 22.41517,-14.860604 l 1.821439,-0.471132 0,-5.499475 0,-5.499503 -1.484138,0 -1.484137,0 0,-3.560539 0,-3.560566 12.412717,0 12.412722,0 0,3.560566 0,3.560539 -1.484137,0 -1.484138,0 0,5.497258 0,5.497258 2.226206,0.593194 c 12.966644,3.455594 23.741262,13.399983 27.858706,25.712041 1.358278,4.0615548 1.850378,7.2829012 1.836253,12.0203998 C 88.949404,8.004863 87.85163,12.555508 84.99093,18.293523 82.462074,23.365921 78.254991,28.416376 73.653307,31.903901 l -1.877737,1.422936 2.215039,0.07576 2.215037,0.07577 0,3.549876 0,3.549904 -28.87307,0 -28.873064,0 0,-3.550661 z"
       id="path4941"
       inkscape:connector-curvature="0" />
    <path
       style="opacity:1;fill:#000000;fill-opacity:1;fill-rule:evenodd;stroke:#ffffff;stroke-width:1.71031225;stroke-linecap:butt;stroke-linejoin:miter;stroke-miterlimit:4;stroke-dasharray:none;stroke-dashoffset:0;stroke-opacity:1"
       d="m 89.158067,41.699599 -9.579381,-0.07295 -1.326698,-4.544724 C 77.522307,34.581047 75.72358,28.678683 74.254817,23.964222 68.608758,5.8415561 65.905912,-4.0410162 64.460606,-11.846932 l -0.731446,-3.950381 1.039808,-1.944014 c 1.40381,-2.624477 4.673954,-5.845711 7.254142,-7.145322 3.705494,-1.866288 6.18576,-3.102258 11.400811,-3.105177 l 2.765877,-0.0016 0,-6.725484 0,-6.725484 7.960332,0.263766 8.23017,0.263767 0,6.857367 0,6.857367 3.20276,0 c 5.08614,0 6.37447,0.49807 10.28932,2.343032 2.81362,1.325848 6.21743,4.636061 7.62551,7.415514 l 1.00208,1.977968 -0.68051,3.560567 c -1.57859,8.2594264 -4.049,17.3786471 -9.12711,33.691846 -1.41084,4.532267 -3.3116,10.763217 -4.22389,13.846591 -0.91229,3.083374 -1.70511,5.754459 -1.76178,5.935784 -0.0784,0.249736 -1.2793,0.314835 -5.03615,0.266572 -2.7132,-0.03367 -9.243806,-0.0954 -14.512468,-0.137495 z"
       id="path4939"
       inkscape:connector-curvature="0"
       sodipodi:nodetypes="scssscssscccccccssscsssscs" />
    <path
       style="opacity:1;fill:#000000;fill-opacity:1;fill-rule:evenodd;stroke:#ffffff;stroke-width:1.7782408;stroke-linecap:butt;stroke-linejoin:miter;stroke-miterlimit:4;stroke-dasharray:none;stroke-dashoffset:0;stroke-opacity:1"
       d="m 113.23706,-1.1696935 c 0,-42.8770935 0.015,-43.8552745 0.71888,-46.5163415 0.98957,-3.741779 2.11019,-5.827163 4.55205,-8.471112 2.40546,-2.604555 5.5712,-4.628317 8.98724,-5.745312 l 2.39111,-0.781758 0,-9.261964 0,-9.261992 5.84497,0 5.84496,0 0,9.481367 0,9.481339 3.0996,1.518621 c 5.21323,2.554045 9.21031,7.252765 10.52698,12.37497 0.4737,1.842998 0.54303,7.783664 0.54303,46.5465052 l 0,44.4339898 -21.2544,0 -21.25441,0 0,-43.7981161 z"
       id="path4949"
       inkscape:connector-curvature="0" />
    <path
       style="opacity:1;fill:#000000;fill-opacity:1;fill-rule:evenodd;stroke:#ffffff;stroke-width:1.16316116;stroke-linecap:butt;stroke-linejoin:miter;stroke-miterlimit:4;stroke-dasharray:none;stroke-dashoffset:0;stroke-opacity:1"
       d="m 54.843562,26.940349 c 0.02726,-7.911647 0.09043,-14.548658 0.140673,-14.748923 0.134646,-0.538196 1.121945,-1.180215 2.042584,-1.328373 0.474042,-0.07576 2.653396,-0.123465 5.761945,-0.123465 l 4.999548,0 0,-2.200206 0,-2.200205 8.344862,0 8.344862,0 0,2.200205 0,2.200206 4.430519,6.17e-4 c 2.560607,3.65e-4 4.704832,0.05051 5.080441,0.115047 0.88791,0.157138 1.804242,0.698139 2.011463,1.186388 0.107658,0.252543 0.188617,5.731645 0.219049,14.842168 l 0.04795,14.439784 -20.736847,0 -20.736851,0 0.04967,-14.384785 z"
       id="path4957"
       inkscape:connector-curvature="0" />
  </g>
</svg>
