<?xml version="1.0" encoding="UTF-8" standalone="no"?>
<!-- Created with Inkscape (http://www.inkscape.org/) -->

<svg
   xmlns:dc="http://purl.org/dc/elements/1.1/"
   xmlns:cc="http://creativecommons.org/ns#"
   xmlns:rdf="http://www.w3.org/1999/02/22-rdf-syntax-ns#"
   xmlns:svg="http://www.w3.org/2000/svg"
   xmlns="http://www.w3.org/2000/svg"
   xmlns:xlink="http://www.w3.org/1999/xlink"
   xmlns:sodipodi="http://sodipodi.sourceforge.net/DTD/sodipodi-0.dtd"
   xmlns:inkscape="http://www.inkscape.org/namespaces/inkscape"
   width="297mm"
   height="210mm"
   viewBox="0 0 1052.3622 744.09448"
   id="svg2"
   version="1.1"
   inkscape:version="0.91 r13725"
   sodipodi:docname="logo.svg">
  <defs
     id="defs4">
    <linearGradient
       inkscape:collect="always"
       id="linearGradient4319">
      <stop
         style="stop-color:#ffa300;stop-opacity:1;"
         offset="0"
         id="stop4321" />
      <stop
         style="stop-color:#ffa300;stop-opacity:0;"
         offset="1"
         id="stop4323" />
    </linearGradient>
    <linearGradient
       inkscape:collect="always"
       xlink:href="#linearGradient4319"
       id="linearGradient4325"
       x1="769.09891"
       y1="627.90886"
       x2="825.83717"
       y2="627.90886"
       gradientUnits="userSpaceOnUse" />
    <linearGradient
       inkscape:collect="always"
       xlink:href="#linearGradient4319"
       id="linearGradient4327"
       x1="462.77002"
       y1="590.88453"
       x2="648.26675"
       y2="590.88453"
       gradientUnits="userSpaceOnUse" />
    <linearGradient
       inkscape:collect="always"
       xlink:href="#linearGradient4319"
       id="linearGradient4329"
       x1="643.68245"
       y1="692.3622"
       x2="733.46037"
       y2="692.3622"
       gradientUnits="userSpaceOnUse" />
    <linearGradient
       inkscape:collect="always"
       xlink:href="#linearGradient4319"
       id="linearGradient4331"
       x1="332.81611"
       y1="691.43648"
       x2="422.59404"
       y2="691.43648"
       gradientUnits="userSpaceOnUse" />
    <linearGradient
       inkscape:collect="always"
       xlink:href="#linearGradient4319"
       id="linearGradient4333"
       x1="202.68912"
       y1="614.84883"
       x2="311.92758"
       y2="614.84883"
       gradientUnits="userSpaceOnUse" />
  </defs>
  <sodipodi:namedview
     id="base"
     pagecolor="#ffffff"
     bordercolor="#666666"
     borderopacity="1.0"
     inkscape:pageopacity="0.0"
     inkscape:pageshadow="2"
     inkscape:zoom="0.49497475"
     inkscape:cx="90.883405"
     inkscape:cy="186.24356"
     inkscape:document-units="px"
     inkscape:current-layer="layer1"
     showgrid="false"
     inkscape:window-width="1855"
     inkscape:window-height="1056"
     inkscape:window-x="65"
     inkscape:window-y="24"
     inkscape:window-maximized="1" />
  <metadata
     id="metadata7">
    <rdf:RDF>
      <cc:Work
         rdf:about="">
        <dc:format>image/svg+xml</dc:format>
        <dc:type
           rdf:resource="http://purl.org/dc/dcmitype/StillImage" />
        <dc:title></dc:title>
      </cc:Work>
    </rdf:RDF>
  </metadata>
  <g
     inkscape:groupmode="layer"
     id="layer2"
     inkscape:label="Layer 2">
    <g
       id="g4231"
       transform="matrix(0,0.95496932,-1.0848841,0,1111.0915,28.510968)"
       style="fill:#367700;fill-opacity:1">
      <g
         id="layer1-3"
         inkscape:label="Layer 1"
         style="fill:#367700;fill-opacity:1">
        <path
           inkscape:connector-curvature="0"
           id="path4248"
           d="m 349.28572,1000.9076 c -25.66986,-12.12149 -41.34304,-40.67534 -37.26256,-67.88597 2.8653,-19.10714 17.27391,-38.3782 35.07778,-46.9154 l 14.95809,-7.1726 0.042,-70.73743 0.042,-70.7374 -11.49383,-4.59894 c -14.0345,-5.61549 -29.25898,-22.77869 -33.87641,-38.19029 l -3.43074,-11.45023 -66.57592,0 -66.57591,0 -3.43828,11.47595 c -10.43212,34.81931 -51.80912,52.77842 -83.445409,36.21834 -15.4224,-8.07289 -30.11767,-28.76814 -32.71194,-46.068 -5.22995,-34.87577 24.52618,-72.79737 57.262549,-72.97617 24.91774,-0.136 51.89084,19.35394 58.82777,42.50734 l 3.50531,11.69969 66.16485,0 66.16485,0 6.49786,-15.67723 c 6.89752,-16.64152 17.67908,-27.68489 33.46999,-34.28275 l 9.65509,-4.03417 0,-81.35277 0,-81.3528 -9.68169,-3.19523 c -13.26383,-4.37745 -28.48031,-19.87211 -34.94037,-35.57911 l -5.37794,-13.07594 -64.61184,-0.0107 -64.61183,-0.0107 -4.72174,12.36371 c -5.58474,14.62343 -19.55739,29.8082 -32.39139,35.20134 -13.29212,5.58566 -36.26267,4.84503 -48.777019,-1.57271 -21.60688,-11.08066 -33.22256,-30.66551 -33.20875,-55.99234 0.0113,-20.61903 7.51582,-36.81492 22.95593,-49.54196 29.287909,-24.14157 72.304699,-14.15447 88.457359,20.53693 3.7694,8.09563 6.86602,16.32646 6.88137,18.29074 0.0214,2.75186 14.9719,3.57143 65.14961,3.57143 l 65.1217,0 3.39572,-12.6962 c 4.26587,-15.94963 17.15525,-30.81821 33.62931,-38.79316 l 12.73157,-6.16325 0,-66.75428 0,-66.75428 L 350,183.77284 c -39.40449,-17.615 -51.40569,-66.18691 -24.43734,-98.904192 23.80971,-28.885303 65.14337,-29.080555 90.30191,-0.426569 25.75466,29.332931 16.14549,78.790581 -18.61814,95.825951 l -14.7684,7.23703 -0.1676,68.92857 -0.16757,68.92857 8.45931,1.69186 c 16.18532,3.23706 33.28403,23.29403 41.22983,48.363 1.47909,4.66645 6.48372,4.99574 65.13674,4.28571 l 63.53455,-0.76914 2.47248,-10.46186 c 2.81646,-11.91734 18.87752,-32.04988 30.26686,-37.93955 39.65791,-20.50789 86.16663,9.63883 85.98034,55.73204 -0.18657,46.18111 -44.94425,75.96957 -85.00623,56.57591 -13.56831,-6.56831 -28.64817,-24.67448 -31.21374,-37.47797 l -1.57443,-7.85714 -64.90488,0 -64.90489,0 -3.32937,11.1124 c -4.06629,13.57208 -22.98574,33.11557 -36.31757,37.51545 l -9.829,3.24386 0,80.87172 0,80.87171 15.64534,7.65454 c 16.53194,8.08835 25.8586,18.54637 31.69943,35.5448 l 3.54894,10.32837 63.1932,0.76915 c 58.36915,0.7104 63.30512,0.38323 64.65943,-4.28572 13.85274,-47.7574 63.81469,-64.529 98.60303,-33.0998 38.63077,34.90057 17.74311,102.39103 -33.56994,108.46829 -25.50989,3.02128 -53.44886,-15.13977 -61.78595,-40.16254 l -3.89468,-11.68938 -62.78732,-0.76748 -62.78731,-0.76749 -6.54606,15.79355 c -7.08811,17.10137 -21.05694,30.817 -36.61548,35.95177 l -9.36263,3.08994 0,71.07331 0,71.07329 12.14286,5.37143 c 14.53451,6.4294 28.80694,21.88806 33.59048,36.38226 5.45349,16.52422 2.44174,41.65694 -6.63566,55.3738 -16.38482,24.75911 -47.78917,35.09651 -71.95482,23.68531 z"
           style="opacity:1;fill:#367700;fill-opacity:1;fill-rule:evenodd;stroke:none;stroke-width:2.46399999;stroke-linecap:butt;stroke-linejoin:miter;stroke-miterlimit:4;stroke-dasharray:none;stroke-dashoffset:0;stroke-opacity:1" />
      </g>
      <g
         style="display:none;fill:#367700;fill-opacity:1"
         inkscape:label="Layer 2"
         id="layer2-5">
        <path
           d="m 443.49563,125.5141 a 61.428574,64.285721 0 0 1 -55.98609,69.4724 61.428574,64.285721 0 0 1 -66.42599,-58.53886 61.428574,64.285721 0 0 1 55.88812,-69.558724 61.428574,64.285721 0 0 1 66.50842,58.436264"
           sodipodi:open="true"
           sodipodi:end="6.1958316"
           sodipodi:start="6.1987812"
           sodipodi:ry="64.285721"
           sodipodi:rx="61.428574"
           sodipodi:cy="130.93364"
           sodipodi:cx="382.28574"
           sodipodi:type="arc"
           id="path4136"
           style="opacity:1;fill:#367700;fill-opacity:1;fill-rule:evenodd;stroke:none;stroke-width:2.46399999;stroke-linecap:butt;stroke-linejoin:miter;stroke-miterlimit:4;stroke-dasharray:none;stroke-dashoffset:0;stroke-opacity:1" />
        <path
           d="m 444.92419,386.94261 a 61.428574,64.285721 0 0 1 -55.98609,69.4724 61.428574,64.285721 0 0 1 -66.42599,-58.53885 61.428574,64.285721 0 0 1 55.88812,-69.55873 61.428574,64.285721 0 0 1 66.50842,58.43627"
           sodipodi:open="true"
           sodipodi:end="6.1958316"
           sodipodi:start="6.1987812"
           sodipodi:ry="64.285721"
           sodipodi:rx="61.428574"
           sodipodi:cy="392.36215"
           sodipodi:cx="383.71429"
           sodipodi:type="arc"
           id="path4136-3"
           style="opacity:1;fill:#367700;fill-opacity:1;fill-rule:evenodd;stroke:none;stroke-width:2.46399999;stroke-linecap:butt;stroke-linejoin:miter;stroke-miterlimit:4;stroke-dasharray:none;stroke-dashoffset:0;stroke-opacity:1" />
        <path
           d="m 195.4956,387.51409 a 61.428574,64.285721 0 0 1 -55.98609,69.47239 61.428574,64.285721 0 0 1 -66.425994,-58.53885 61.428574,64.285721 0 0 1 55.888124,-69.55873 61.428574,64.285721 0 0 1 66.50842,58.43627"
           sodipodi:open="true"
           sodipodi:end="6.1958316"
           sodipodi:start="6.1987812"
           sodipodi:ry="64.285721"
           sodipodi:rx="61.428574"
           sodipodi:cy="392.93362"
           sodipodi:cx="134.28571"
           sodipodi:type="arc"
           id="path4136-6"
           style="opacity:1;fill:#367700;fill-opacity:1;fill-rule:evenodd;stroke:none;stroke-width:2.46399999;stroke-linecap:butt;stroke-linejoin:miter;stroke-miterlimit:4;stroke-dasharray:none;stroke-dashoffset:0;stroke-opacity:1" />
        <path
           d="m 192.63847,675.22841 a 61.428574,64.285721 0 0 1 -55.98609,69.47239 61.428574,64.285721 0 0 1 -66.425996,-58.53885 61.428574,64.285721 0 0 1 55.888126,-69.55872 61.428574,64.285721 0 0 1 66.50842,58.43626"
           sodipodi:open="true"
           sodipodi:end="6.1958316"
           sodipodi:start="6.1987812"
           sodipodi:ry="64.285721"
           sodipodi:rx="61.428574"
           sodipodi:cy="680.64795"
           sodipodi:cx="131.42857"
           sodipodi:type="arc"
           id="path4136-7"
           style="opacity:1;fill:#367700;fill-opacity:1;fill-rule:evenodd;stroke:none;stroke-width:2.46399999;stroke-linecap:butt;stroke-linejoin:miter;stroke-miterlimit:4;stroke-dasharray:none;stroke-dashoffset:0;stroke-opacity:1" />
        <path
           d="m 444.06707,943.22841 a 61.428574,64.285721 0 0 1 -55.98609,69.47239 61.428574,64.285721 0 0 1 -66.42599,-58.53885 61.428574,64.285721 0 0 1 55.88812,-69.55872 61.428574,64.285721 0 0 1 66.50842,58.43626"
           sodipodi:open="true"
           sodipodi:end="6.1958316"
           sodipodi:start="6.1987812"
           sodipodi:ry="64.285721"
           sodipodi:rx="61.428574"
           sodipodi:cy="948.64795"
           sodipodi:cx="382.85718"
           sodipodi:type="arc"
           id="path4136-5"
           style="opacity:1;fill:#367700;fill-opacity:1;fill-rule:evenodd;stroke:none;stroke-width:2.46399999;stroke-linecap:butt;stroke-linejoin:miter;stroke-miterlimit:4;stroke-dasharray:none;stroke-dashoffset:0;stroke-opacity:1" />
        <path
           d="m 692.63848,386.9427 a 61.428574,64.285721 0 0 1 -55.98609,69.4724 61.428574,64.285721 0 0 1 -66.42599,-58.53885 61.428574,64.285721 0 0 1 55.88812,-69.55873 61.428574,64.285721 0 0 1 66.50842,58.43627"
           sodipodi:open="true"
           sodipodi:end="6.1958316"
           sodipodi:start="6.1987812"
           sodipodi:ry="64.285721"
           sodipodi:rx="61.428574"
           sodipodi:cy="392.36224"
           sodipodi:cx="631.42859"
           sodipodi:type="arc"
           id="path4136-6-6"
           style="opacity:1;fill:#367700;fill-opacity:1;fill-rule:evenodd;stroke:none;stroke-width:2.46399999;stroke-linecap:butt;stroke-linejoin:miter;stroke-miterlimit:4;stroke-dasharray:none;stroke-dashoffset:0;stroke-opacity:1" />
        <path
           d="m 692.63854,674.657 a 61.428574,64.285721 0 0 1 -55.98609,69.47239 61.428574,64.285721 0 0 1 -66.42599,-58.53885 61.428574,64.285721 0 0 1 55.88812,-69.55873 61.428574,64.285721 0 0 1 66.50842,58.43627"
           sodipodi:open="true"
           sodipodi:end="6.1958316"
           sodipodi:start="6.1987812"
           sodipodi:ry="64.285721"
           sodipodi:rx="61.428574"
           sodipodi:cy="680.07654"
           sodipodi:cx="631.42865"
           sodipodi:type="arc"
           id="path4136-7-2"
           style="opacity:1;fill:#367700;fill-opacity:1;fill-rule:evenodd;stroke:none;stroke-width:2.46399999;stroke-linecap:butt;stroke-linejoin:miter;stroke-miterlimit:4;stroke-dasharray:none;stroke-dashoffset:0;stroke-opacity:1" />
        <rect
           y="103.79077"
           x="371.42856"
           height="871.42859"
           width="22.857143"
           id="rect4195"
           style="opacity:1;fill:#367700;fill-opacity:1;fill-rule:evenodd;stroke:none;stroke-width:2.46399999;stroke-linecap:butt;stroke-linejoin:miter;stroke-miterlimit:4;stroke-dasharray:none;stroke-dashoffset:0;stroke-opacity:1" />
        <rect
           y="383.79074"
           x="120"
           height="20"
           width="491.42859"
           id="rect4197"
           style="opacity:1;fill:#367700;fill-opacity:1;fill-rule:evenodd;stroke:none;stroke-width:2.46399999;stroke-linecap:butt;stroke-linejoin:miter;stroke-miterlimit:4;stroke-dasharray:none;stroke-dashoffset:0;stroke-opacity:1" />
        <rect
           y="670.93365"
           x="117.14285"
           height="20"
           width="537.14288"
           id="rect4197-9"
           style="opacity:1;fill:#367700;fill-opacity:1;fill-rule:evenodd;stroke:none;stroke-width:2.46399999;stroke-linecap:butt;stroke-linejoin:miter;stroke-miterlimit:4;stroke-dasharray:none;stroke-dashoffset:0;stroke-opacity:1" />
        <path
           d="m 446.06704,675.22841 a 61.428574,64.285721 0 0 1 -55.98609,69.47239 61.428574,64.285721 0 0 1 -66.42599,-58.53885 61.428574,64.285721 0 0 1 55.88812,-69.55872 61.428574,64.285721 0 0 1 66.50842,58.43626"
           sodipodi:open="true"
           sodipodi:end="6.1958316"
           sodipodi:start="6.1987812"
           sodipodi:ry="64.285721"
           sodipodi:rx="61.428574"
           sodipodi:cy="680.64795"
           sodipodi:cx="384.85715"
           sodipodi:type="arc"
           id="path4136-3-1"
           style="opacity:1;fill:#367700;fill-opacity:1;fill-rule:evenodd;stroke:none;stroke-width:2.46399999;stroke-linecap:butt;stroke-linejoin:miter;stroke-miterlimit:4;stroke-dasharray:none;stroke-dashoffset:0;stroke-opacity:1" />
      </g>
    </g>
  </g>
  <g
     inkscape:label="Layer 1"
     inkscape:groupmode="layer"
     id="layer1"
     transform="translate(0,-308.26772)">
    <text
       xml:space="preserve"
       style="font-style:normal;font-weight:normal;font-size:177.13409424px;line-height:125%;font-family:sans-serif;letter-spacing:0px;word-spacing:0px;fill:#ffc400;fill-opacity:1;stroke:none;stroke-width:1px;stroke-linecap:butt;stroke-linejoin:miter;stroke-opacity:1"
       x="205.22838"
       y="675.37396"
       id="text4136"
       sodipodi:linespacing="125%"><tspan
         sodipodi:role="line"
         id="tspan4138"
         x="205.22838"
         y="675.37396"
         style="fill:#ffc400;fill-opacity:1">T</tspan></text>
    <text
       xml:space="preserve"
       style="font-style:normal;font-weight:normal;font-size:177.13409424px;line-height:125%;font-family:sans-serif;letter-spacing:0px;word-spacing:0px;fill:#ffc400;fill-opacity:1;stroke:none;stroke-width:1px;stroke-linecap:butt;stroke-linejoin:miter;stroke-opacity:1;"
       x="323.0426"
       y="739.7851"
       id="text4136-6"
       sodipodi:linespacing="125%"><tspan
         sodipodi:role="line"
         id="tspan4138-2"
         x="323.0426"
         y="739.7851"
         style="fill-opacity:1;fill:#ffc400;">e</tspan></text>
    <text
       xml:space="preserve"
       style="font-style:normal;font-weight:normal;font-size:177.13409424px;line-height:125%;font-family:sans-serif;letter-spacing:0px;word-spacing:0px;fill:#ffc400;fill-opacity:1;stroke:none;stroke-width:1px;stroke-linecap:butt;stroke-linejoin:miter;stroke-opacity:1;"
       x="633.90894"
       y="740.71082"
       id="text4136-6-9"
       sodipodi:linespacing="125%"><tspan
         sodipodi:role="line"
         id="tspan4138-2-1"
         x="633.90894"
         y="740.71082"
         style="fill-opacity:1;fill:#ffc400;">e</tspan></text>
    <text
       xml:space="preserve"
       style="font-style:normal;font-weight:normal;font-size:170.51045227px;line-height:125%;font-family:sans-serif;letter-spacing:0px;word-spacing:0px;fill:#ffc400;fill-opacity:1;stroke:none;stroke-width:1px;stroke-linecap:butt;stroke-linejoin:miter;stroke-opacity:1"
       x="449.383"
       y="650.56177"
       id="text4136-6-2"
       sodipodi:linespacing="125%"
       transform="scale(0.96260666,1.0388459)"><tspan
         sodipodi:role="line"
         id="tspan4138-2-7"
         x="449.383"
         y="650.56177"
         style="fill:#ffc400;fill-opacity:1">nd</tspan></text>
    <text
       xml:space="preserve"
       style="font-style:normal;font-weight:normal;font-size:177.13409424px;line-height:125%;font-family:sans-serif;letter-spacing:0px;word-spacing:0px;fill:#ffc400;fill-opacity:1;stroke:none;stroke-width:1px;stroke-linecap:butt;stroke-linejoin:miter;stroke-opacity:1"
       x="755.03186"
       y="673.47101"
       id="text4136-0"
       sodipodi:linespacing="125%"><tspan
         sodipodi:role="line"
         id="tspan4138-9"
         x="755.03186"
         y="673.47101"
         style="fill:#ffc400;fill-opacity:1">r</tspan></text>
  </g>
</svg>
